<svg version="1.1" xmlns="http://www.w3.org/2000/svg" xmlns:xlink="http://www.w3.org/1999/xlink" x="0px" y="0px"
	 width="20px" height="20px" viewBox="0 0 512 512" enable-background="new 0 0 512 512" xml:space="preserve">
<path id="pen-14-icon" d="M375.94,237c-25.462,34.539-63.206,68.62-105.74,63.056c-11.524,16.062-24.355,38.467-38.629,64.5
	l-32.976,10.332c27.906-54.365,65.187-114.499,105.173-160.184c-17.315,11.257-45.771,35.475-70.521,61.005
	c-22.329-46.559,1.206-89.682,35.33-122.614c-0.977,15.509,5.924,29.664,11.084,36.942c-0.873-12.978,0.634-36.146,10.103-56.239
	c19.006-16.005,35.812-27.522,55.018-37.604c-3.118,11.347-0.462,24.945,3.193,33.431c1.655-11.754,8.661-33.961,16.751-43.169
	C388.686,71.015,424.146,58.68,462,59.31c-4.186,23.278-16.416,61.086-32.961,84.543c-13.35,8.563-31.003,13.584-45.064,15.989
	c11.65,3.265,24.706,4.222,36.039,3.38c-8.243,17.295-16.625,33.156-29.294,52.594c-17.463,9.738-39.778,14.028-55.047,14.839
	C346.345,236.233,365.796,239.496,375.94,237z M356.944,313.191c-0.019,0.013-0.036,0.025-0.055,0.039v99.442H90.04V217.479h96.285
	c2.267-13.087,6.698-26.438,13.709-40.04H50v275.275h346.929V275.078C384.219,290.289,370.821,303.075,356.944,313.191z"/>
</svg>
