<svg version="1.1" xmlns="http://www.w3.org/2000/svg" xmlns:xlink="http://www.w3.org/1999/xlink" x="0px" y="0px"

	 width="24px" height="24px" viewBox="0 0 512 512" enable-background="new 0 0 512 512" xml:space="preserve">

<path id="audio-file-2-icon" d="M326.358,223.478l-110.531,22.995l-0.113,83.63c-21.715-4.287-44.249,15-37.836,33.169

	c8.479,24.025,56.258,16.789,56.294-15.615c0.015-13.348-0.011-44.89-0.018-66.768l73.742-18.387v56.076

	c-21.717-4.286-44.248,15.003-37.837,33.17c8.479,24.027,56.258,16.791,56.295-15.615

	C326.366,324.951,326.358,223.478,326.358,223.478z M297.818,90v85.75h85.864V422H128.317V90H297.818 M322.818,50H88.317v412

	h335.365V150.75L322.818,50z"/>

</svg>

