<svg version="1.1" xmlns="http://www.w3.org/2000/svg" xmlns:xlink="http://www.w3.org/1999/xlink" x="0px" y="0px"

	 width="24px" height="24px" viewBox="0 0 512 512" enable-background="new 0 0 512 512" xml:space="preserve">

<path id="video-file-2-icon" d="M338.773,338.924h-20.772V321.06h20.772V338.924z M338.773,352.219h-20.772v17.864h20.772V352.219z

	 M299.305,227.583h-84.336v62.318h84.336V227.583z M338.773,289.753h-20.772v17.863h20.772V289.753z M338.773,258.742h-20.772

	v17.864h20.772V258.742z M338.773,227.583h-20.772v17.864h20.772V227.583z M196.272,227.583H175.5v17.864h20.772V227.583z

	 M196.272,352.219H175.5v17.864h20.772V352.219z M196.272,321.06H175.5v17.864h20.772V321.06z M299.305,307.765h-84.336v62.318

	h84.336V307.765z M196.272,289.753H175.5v17.863h20.772V289.753z M196.272,258.742H175.5v17.864h20.772V258.742z M297.818,90v85.75

	h85.864V422H128.317V90H297.818 M322.818,50H88.317v412h335.365V150.75L322.818,50z"/>

</svg>

