<svg xmlns="http://www.w3.org/2000/svg" version="1" width="16" height="16" viewBox="0 0 50 50">
    <path d="M 4 2 C 3.4 2 3 2.4 3 3 L 3 6 C 3 6.3 3.1125 6.4875 3.3125 6.6875 L 19.3125 23.6875 C 19.5125 23.8875 19.8 24 20 24 L 30 24 C 30.3 24 30.4875 23.8875 30.6875 23.6875 L 46.6875 6.6875 C 46.8875 6.4875 47 6.3 47 6 L 47 3 C 47 2.4 46.6 2 46 2 L 4 2 z M 19 26 L 19 41 C 19 41.4 19.2 41.70625 19.5 41.90625 L 29.5 47.90625 C 29.6 48.00625 29.8 48 30 48 C 30.2 48 30.3 48.00625 30.5 47.90625 C 30.8 47.70625 31 47.4 31 47 L 31 26 L 19 26 z"></path>
</svg>
