<svg xmlns="http://www.w3.org/2000/svg" width="50" height="50" viewBox="0 0 50 50">
    <path d="M 39.78125 5.96875 A 2.0002 2.0002 0 0 0 38 8 L 38 12.5625 C 34.722701 9.1373523 30.10346 7 25 7 C 15.082241 7 7 15.082241 7 25 A 2.0002 2.0002 0 1 0 11 25 C 11 17.243759 17.243759 11 25 11 C 28.816123 11 32.256876 12.535728 34.78125 15 L 31 15 A 2.0002 2.0002 0 1 0 31 19 L 40 19 L 42 19 L 42 17 L 42 8 A 2.0002 2.0002 0 0 0 39.96875 5.96875 A 2.0002 2.0002 0 0 0 39.78125 5.96875 z M 40.78125 22.96875 A 2.0002 2.0002 0 0 0 39 25 C 39 32.757363 32.756392 39 25 39 C 21.184399 39 17.742551 37.46305 15.21875 35 L 19 35 A 2.0002 2.0002 0 1 0 19 31 L 10 31 L 8 31 L 8 33 L 8 42 A 2.0002 2.0002 0 1 0 12 42 L 12 37.4375 C 15.276425 40.860887 19.895994 43 25 43 C 34.917608 43 43 34.918637 43 25 A 2.0002 2.0002 0 0 0 40.96875 22.96875 A 2.0002 2.0002 0 0 0 40.78125 22.96875 z" color="#000" overflow="visible" enable-background="accumulate" font-family="Bitstream Vera Sans"></path>
</svg>
