<?xml version="1.0" encoding="iso-8859-1"?>
<!-- Generator: Adobe Illustrator 16.0.0, SVG Export Plug-In . SVG Version: 6.00 Build 0)  -->
<!DOCTYPE svg PUBLIC "-//W3C//DTD SVG 1.1//EN" "http://www.w3.org/Graphics/SVG/1.1/DTD/svg11.dtd">
<svg xmlns="http://www.w3.org/2000/svg" xmlns:xlink="http://www.w3.org/1999/xlink" version="1.1" id="Capa_1" x="0px" y="0px" width="512px" height="512px" viewBox="0 0 612 612" style="enable-background:new 0 0 612 612;" xml:space="preserve">
<g>
	<g>
		<path d="M194.644,13.909H55.72c-15.411,0-27.901,12.351-27.901,27.818V153h556.363V97.336c0-15.356-12.462-27.791-27.763-27.791    H222.545V41.727C222.545,26.372,210.361,13.909,194.644,13.909z" fill="#006DF0"/>
		<polygon points="556.363,598.091 556.363,542.454 612,542.454 612,486.818 556.363,486.818 556.363,431.182 500.728,431.182     500.728,486.818 445.091,486.818 445.091,542.454 500.728,542.454 500.728,598.091   " fill="#006DF0"/>
		<path d="M0,208.831V570.05c0,15.495,12.212,28.041,27.874,28.041h427.064c-23.089-20.391-37.666-50.212-37.666-83.454    c0-61.451,49.822-111.273,111.273-111.273c33.242,0,63.063,14.577,83.454,37.666V208.831c0-15.467-12.24-28.013-27.874-28.013    H27.874C12.49,180.818,0,193.309,0,208.831z" fill="#006DF0"/>
	</g>
</g>
<g>
</g>
<g>
</g>
<g>
</g>
<g>
</g>
<g>
</g>
<g>
</g>
<g>
</g>
<g>
</g>
<g>
</g>
<g>
</g>
<g>
</g>
<g>
</g>
<g>
</g>
<g>
</g>
<g>
</g>
</svg>
