<svg xmlns="http://www.w3.org/2000/svg" width="50" height="50" viewBox="0 0 50 50">
    <path d="M 17 9 L 16.34375 16 L 10.09375 16 L 9.6875 20 L 15.96875 20 L 14.9375 31 L 8.6875 31 L 8.3125 35 L 14.5625 35 L 14 40.90625 L 14 41 L 18 41 L 18.5625 35 L 29.5625 35 L 29 40.90625 L 29 41 L 33 41 L 33.5625 35 L 40.3125 35 L 40.6875 31 L 33.9375 31 L 34.96875 20 L 41.6875 20 L 42.09375 16 L 35.34375 16 L 36 9.09375 L 36 9 L 32 9 L 31.34375 16 L 20.34375 16 L 21 9.09375 L 21 9 L 17 9 z M 19.96875 20 L 30.96875 20 L 29.9375 31 L 18.9375 31 L 19.96875 20 z"></path>
</svg>
